<?xml version="1.0" standalone="no"?>
<!DOCTYPE svg PUBLIC "-//W3C//DTD SVG 20010904//EN"
 "http://www.w3.org/TR/2001/REC-SVG-20010904/DTD/svg10.dtd">
<svg version="1.0" xmlns="http://www.w3.org/2000/svg"
 width="329.000000pt" height="329.000000pt" viewBox="0 0 329.000000 329.000000"
 preserveAspectRatio="xMidYMid meet">
<metadata>
Created by potrace 1.11, written by Peter Selinger 2001-2013
</metadata>
<g transform="translate(0.000000,329.000000) scale(0.100000,-0.100000)"
fill="#000000" stroke="none">
<path d="M1400 3221 c-84 -18 -162 -73 -236 -166 -109 -138 -149 -167 -244
-180 -97 -13 -179 -58 -224 -123 -14 -20 -39 -71 -55 -112 -37 -90 -58 -110
-117 -110 -25 0 -44 -5 -44 -11 0 -19 21 -54 46 -75 l25 -20 -22 -50 c-26 -61
-36 -185 -20 -249 15 -60 -2 -85 -61 -85 -43 0 -45 -5 -27 -77 13 -49 74 -123
102 -123 10 0 17 -3 17 -7 0 -5 2 -60 4 -123 2 -105 6 -123 40 -210 36 -92 72
-144 106 -155 15 -5 18 -25 23 -133 10 -232 86 -396 279 -598 48 -50 88 -100
88 -110 0 -11 -9 -33 -19 -51 -17 -26 -28 -33 -68 -38 -26 -4 -86 -13 -133
-22 -47 -8 -125 -19 -173 -24 -64 -6 -100 -16 -131 -34 -46 -27 -103 -82 -94
-91 23 -22 560 -178 573 -166 3 3 5 56 5 117 l0 112 46 93 c26 52 52 120 58
152 11 59 23 70 46 43 12 -15 11 -48 -6 -177 -6 -46 -6 -47 29 -64 31 -15 42
-16 78 -5 68 20 273 140 334 193 57 51 85 57 85 18 0 -33 -80 -110 -188 -180
-94 -61 -114 -81 -93 -94 16 -11 186 105 250 170 60 61 91 75 91 40 0 -17 -56
-94 -109 -149 -20 -21 -71 -58 -113 -83 -76 -44 -89 -56 -67 -69 19 -12 197
103 232 150 17 24 35 44 39 45 11 0 -2 -29 -45 -97 -29 -47 -59 -77 -122 -123
-101 -74 -114 -87 -91 -96 16 -6 132 73 199 134 15 14 27 21 27 15 0 -17 -72
-104 -124 -150 -25 -22 -46 -44 -46 -48 0 -9 183 1 390 21 153 15 360 55 495
95 105 31 200 61 203 64 8 7 -30 65 -59 89 -53 45 -107 67 -187 76 -42 5 -120
15 -172 24 -271 43 -318 50 -348 50 -40 -1 -34 5 48 41 158 69 303 200 380
345 43 81 47 85 87 92 23 4 52 12 64 19 35 18 163 126 177 149 8 13 23 20 45
20 18 0 42 6 52 14 18 13 18 14 -2 24 -50 27 -31 82 61 175 84 86 116 152 123
254 3 43 0 98 -6 123 -10 44 -10 46 29 85 38 39 78 114 63 116 -5 1 -30 2 -58
3 -48 1 -50 2 -53 32 -2 18 8 55 21 85 71 155 57 297 -41 441 -21 32 -31 60
-36 108 -9 84 -45 158 -91 188 -20 13 -65 28 -101 35 l-65 12 -23 56 c-30 73
-67 121 -146 186 -83 69 -198 127 -295 148 -88 20 -127 16 -200 -20 -29 -14
-62 -25 -74 -25 -12 0 -72 16 -133 36 -116 38 -228 51 -298 35z m208 -86 c28
-9 53 -19 56 -23 3 -5 -32 -8 -77 -8 -58 0 -99 -7 -142 -22 -33 -11 -61 -19
-63 -17 -8 8 84 48 127 55 l46 8 -60 2 c-44 1 -55 4 -40 10 32 14 97 11 153
-5z m580 -30 c34 -15 61 -29 59 -31 -2 -2 -30 6 -62 17 -63 22 -147 29 -207
16 -42 -9 -51 3 -15 21 39 21 155 9 225 -23z m-638 -30 c0 -2 -24 -17 -52 -31
-40 -21 -49 -23 -38 -9 20 24 90 55 90 40z m641 -21 c17 -8 29 -18 26 -20 -3
-3 -22 4 -43 15 -21 12 -33 21 -26 21 7 0 27 -7 43 -16z m-56 -154 c3 -5 -3
-10 -14 -10 -33 0 -33 -17 1 -29 37 -13 29 -28 -17 -35 -17 -2 -24 -1 -17 1
21 8 13 24 -18 34 -37 14 -38 24 -2 37 36 14 59 14 67 2z m-487 -9 c9 -5 2
-10 -24 -14 -23 -4 -50 -19 -70 -38 -29 -28 -32 -29 -27 -10 6 23 67 70 93 70
8 0 21 -3 28 -8z m45 -52 l21 -12 -23 -8 c-12 -5 -20 -13 -17 -18 5 -8 -25
-21 -51 -21 -22 0 -14 19 15 34 15 8 21 15 14 16 -15 0 -6 20 9 20 6 0 20 -5
32 -11z m-875 -123 c-31 -24 -37 -46 -13 -46 8 0 15 -4 15 -9 0 -16 -38 -23
-60 -11 -19 10 -19 12 -3 37 18 28 74 66 83 57 3 -3 -7 -16 -22 -28z m437 -5
c-22 -4 -51 -11 -65 -15 -24 -7 -24 -6 -6 8 12 10 38 16 65 15 l46 -2 -40 -6z
m835 -1 c-36 -12 -60 -12 -60 0 0 6 19 10 43 9 36 -1 38 -2 17 -9z m-1260
-117 c0 -5 -15 -17 -33 -28 -45 -27 -47 -28 -47 -16 0 6 15 20 33 31 34 21 47
25 47 13z m1460 0 c-8 -3 -27 -12 -42 -20 -32 -15 -35 -12 -12 11 8 9 27 16
42 15 16 0 21 -3 12 -6z m-875 -63 c-3 -5 -11 -10 -16 -10 -6 0 -7 5 -4 10 3
6 11 10 16 10 6 0 7 -4 4 -10z m75 1 c0 -5 -7 -12 -16 -15 -24 -9 -28 -7 -14
9 14 17 30 20 30 6z m-704 -156 c-30 -22 -13 -28 45 -16 58 13 77 7 33 -9 -79
-29 -135 -53 -140 -61 -8 -14 -24 -11 -24 4 0 21 70 97 88 97 15 -1 14 -3 -2
-15z m2044 -38 c0 -13 -29 12 -42 37 -10 19 -8 18 16 -3 14 -14 26 -29 26 -34z
m-500 23 c6 -11 25 -27 43 -36 54 -28 56 -37 50 -174 -7 -142 1 -179 52 -250
22 -32 34 -63 39 -100 4 -30 10 -72 13 -93 7 -50 -5 -110 -20 -103 -7 2 -39
16 -71 30 -54 22 -61 29 -77 71 -22 57 -63 119 -93 138 -40 26 -116 47 -205
56 -133 14 -191 -6 -191 -65 0 -27 16 -31 170 -38 75 -3 121 -10 163 -26 54
-20 127 -72 127 -89 0 -5 -66 8 -147 26 -114 27 -176 35 -268 38 -95 3 -130 8
-165 24 -28 13 -66 21 -101 21 -39 0 -61 5 -70 16 -34 41 -196 103 -416 160
-76 19 -139 37 -142 39 -11 12 27 36 89 54 88 27 101 26 66 -5 -15 -14 -25
-28 -21 -32 13 -14 121 -3 174 17 59 22 68 20 156 -34 87 -54 105 -51 105 17
0 32 -5 41 -42 66 -24 16 -57 36 -75 45 -24 13 -30 22 -26 37 8 31 21 33 49
11 42 -33 84 -26 61 9 -8 14 -8 25 1 46 l13 27 100 -7 100 -7 57 56 c53 52 95
76 109 61 4 -3 -1 -12 -10 -19 -30 -22 -49 -85 -37 -121 12 -38 45 -71 77 -79
24 -5 40 7 23 18 -15 9 -12 36 7 57 13 15 31 18 97 18 95 0 116 10 147 73 12
23 26 48 31 55 16 18 46 14 58 -8z m-1475 -60 c-3 -5 -11 -10 -16 -10 -6 0 -7
5 -4 10 3 6 11 10 16 10 6 0 7 -4 4 -10z m125 -34 c0 -7 -71 -46 -83 -46 -19
1 46 50 66 50 9 0 17 -2 17 -4z m1768 -116 c-2 -7 -10 1 -17 16 -12 27 -11 28
4 12 10 -9 16 -21 13 -28z m-10 -17 c17 -4 22 -12 22 -34 0 -38 -8 -36 -50 14
-26 30 -30 39 -15 33 11 -5 30 -11 43 -13z m-4 -89 c9 -24 7 -27 -9 -10 -17
17 -19 26 -6 26 5 0 12 -7 15 -16z m-1634 -131 l55 -16 -38 -10 c-21 -5 -56
-26 -78 -47 -36 -34 -39 -40 -29 -66 29 -78 114 -158 194 -184 56 -18 180 -9
240 18 27 12 51 20 54 17 8 -8 -20 -69 -40 -87 -41 -36 -189 -19 -393 44 -181
55 -211 81 -196 163 5 28 17 54 28 61 36 25 56 50 75 92 21 47 17 46 128 15z
m135 -62 c9 -16 -14 -23 -52 -16 -27 5 -33 9 -22 16 18 12 66 12 74 0z m-110
-31 c-4 -6 -1 -26 5 -45 11 -32 20 -40 43 -36 5 1 6 -3 3 -8 -9 -13 30 -24 59
-17 14 4 36 18 49 33 20 22 23 30 13 42 -10 12 -9 13 2 6 11 -6 13 -3 9 13 -5
18 -2 22 17 22 39 0 107 -60 130 -114 l20 -48 -24 -19 c-13 -11 -48 -26 -79
-35 -128 -38 -259 22 -310 140 -11 26 -10 31 9 52 22 23 67 34 54 14z m386
-51 c11 -11 18 -27 15 -36 -3 -8 -6 -21 -6 -29 0 -8 -4 -14 -10 -14 -5 0 -10
10 -10 23 0 13 -7 32 -15 43 -29 38 -9 48 26 13z m172 -70 c23 -6 50 -16 60
-24 17 -12 17 -16 -3 -86 -24 -87 -38 -229 -23 -229 6 0 13 7 16 15 5 11 17 7
58 -20 115 -78 503 -162 601 -131 l28 8 -16 -38 c-51 -123 -190 -395 -225
-440 -22 -29 -69 -76 -102 -104 -61 -49 -230 -144 -246 -138 -5 2 -32 31 -61
66 -56 68 -84 77 -129 45 -24 -16 -25 -16 -51 15 -19 23 -29 29 -37 21 -8 -8
-13 1 -18 30 -4 22 -4 44 -1 49 3 5 -34 20 -82 32 -120 30 -141 34 -122 21 12
-8 12 -13 -4 -30 -11 -12 -25 -21 -33 -21 -8 0 -31 -11 -51 -25 -36 -24 -92
-34 -92 -16 0 5 -38 11 -84 12 -75 4 -86 7 -105 29 -78 91 -136 202 -167 314
-27 102 -30 179 -14 351 6 61 13 139 16 174 l6 63 26 -24 c43 -39 71 -53 172
-86 231 -77 423 -101 487 -62 39 23 44 33 73 140 13 47 28 88 34 92 15 11 40
10 89 -3z m213 -22 c-10 -7 -32 -23 -49 -36 l-30 -25 8 25 c9 31 33 49 64 48
24 0 25 -1 7 -12z m-1233 -79 c14 -16 33 -28 42 -28 17 0 19 -8 5 -30 -8 -12
-10 -12 -16 3 -6 18 -24 24 -24 8 0 -5 11 -23 25 -39 25 -30 35 -95 16 -106
-24 -15 -93 134 -106 230 l-7 49 20 -30 c11 -16 31 -42 45 -57z m1342 41 c-8
-12 -42 -12 -50 0 -3 5 5 11 17 13 28 5 40 0 33 -13z m165 -29 c43 -22 65 -45
84 -92 14 -33 14 -36 -7 -56 -34 -32 -108 -62 -154 -62 -87 0 -200 63 -238
134 -19 34 -19 36 0 55 26 29 39 26 50 -11 7 -23 21 -38 46 -51 33 -16 39 -16
72 -2 32 13 55 45 49 68 -1 4 3 17 8 28 12 22 28 20 90 -11z m178 -15 c43 -14
86 -33 96 -44 16 -18 16 -23 1 -81 -9 -34 -25 -86 -36 -116 -17 -45 -25 -55
-55 -64 -46 -16 -114 -7 -281 35 -132 33 -231 71 -265 102 -12 10 -18 30 -18
57 0 65 13 73 43 29 33 -48 110 -106 160 -123 65 -20 161 -14 225 15 73 33 92
52 92 87 0 35 -14 64 -48 101 -33 35 -19 35 86 2z m200 -454 c13 -7 22 -18 20
-26 -5 -21 -147 -135 -168 -135 -19 0 -19 2 -7 33 8 20 26 38 48 49 43 20 70
48 46 48 -9 0 -19 -4 -22 -10 -3 -5 -10 -10 -15 -10 -5 0 1 23 12 50 21 51 21
51 42 32 12 -11 31 -25 44 -31z m-692 -776 c9 -21 -13 -79 -40 -104 l-23 -22
-1 47 c0 62 12 94 38 94 11 0 23 -7 26 -15z"/>
<path d="M1340 1251 c-24 -45 0 -91 47 -91 17 0 40 -15 70 -45 48 -50 81 -57
133 -30 24 13 37 13 74 3 40 -11 47 -10 66 7 21 19 29 85 10 85 -5 0 -10 -9
-10 -19 0 -52 -20 -62 -70 -36 -27 14 -34 13 -81 -5 -57 -23 -59 -22 -112 38
-23 25 -37 32 -67 32 -43 0 -55 16 -40 55 11 30 -4 34 -20 6z"/>
<path d="M1209 944 c-20 -24 8 -40 86 -47 35 -3 78 -13 95 -22 17 -9 66 -22
108 -30 42 -7 103 -23 134 -35 60 -22 78 -20 78 8 0 13 -23 24 -93 45 -50 15
-104 27 -119 27 -15 0 -49 9 -76 19 -27 11 -77 25 -111 31 -34 6 -68 13 -75
16 -7 3 -19 -3 -27 -12z"/>
</g>
</svg>
